<svg xmlns="http://www.w3.org/2000/svg" width="32" height="32" viewBox="0 0 32 32">
  <title>A smiling sage-green frog</title>
  <path d="M4 14C1 8 4 3 9 3C13 3 15 6 16 9C18 5 20 3 24 4C29 5 30 10 28 14C31 17 31 23 28 27C22 31 11 31 5 27C1 24 1 18 4 14Z" fill="#B6C3A2" stroke="#302C29" stroke-width="1.8" stroke-linejoin="round"/>
  <path d="M4 22C8 28 23 29 29 21C29 25 27 28 22 29C15 31 7 29 4 25Z" fill="#94A284"/>
  <ellipse cx="9" cy="11" rx="3.3" ry="4.1" fill="#302C29"/>
  <ellipse cx="23" cy="11" rx="3.3" ry="4.1" fill="#302C29"/>
  <circle cx="8" cy="9.3" r="1.1" fill="#FAF5EC"/>
  <circle cx="22" cy="9.3" r="1.1" fill="#FAF5EC"/>
  <ellipse cx="6.5" cy="19.5" rx="2.2" ry="1.3" fill="#C88972" opacity=".65"/>
  <ellipse cx="25.5" cy="19.5" rx="2.2" ry="1.3" fill="#C88972" opacity=".65"/>
  <path d="M8 20Q16 27 24 20" fill="none" stroke="#302C29" stroke-width="1.8" stroke-linecap="round"/>
  <circle cx="14.5" cy="17.4" r=".65" fill="#302C29"/>
  <circle cx="17.5" cy="17.4" r=".65" fill="#302C29"/>
</svg>
